<svg id="Layer_1" data-name="Layer 1" xmlns="http://www.w3.org/2000/svg" xmlns:xlink="http://www.w3.org/1999/xlink" viewBox="0 0 325.41 242"><defs><style>.cls-1,.cls-11{fill:#fff;}.cls-2{fill:#aa8b56;}.cls-11,.cls-12,.cls-13,.cls-2{stroke:#fff;stroke-width:2px;}.cls-3{mask:url(#mask);}.cls-4{fill:url(#linear-gradient);}.cls-5{fill:url(#linear-gradient-2);}.cls-6{fill:url(#linear-gradient-3);}.cls-7{fill:url(#linear-gradient-4);}.cls-8{fill:url(#linear-gradient-5);}.cls-9{fill-rule:evenodd;fill:url(#linear-gradient-6);}.cls-10{opacity:0.1;}.cls-11,.cls-12,.cls-13{stroke-opacity:0.7;}.cls-12{fill:url(#linear-gradient-7);}.cls-13{fill:none;}</style><mask id="mask" x="22.38" y="10.58" width="277.25" height="218.39" maskUnits="userSpaceOnUse"><g transform="translate(1 1)"><g id="mask0_2149_1175" data-name="mask0 2149 1175"><path class="cls-1" d="M298.62,9.58H21.38V217.8H298.62Z"/></g></g></mask><linearGradient id="linear-gradient" x1="-5.58" y1="228.62" x2="223.47" y2="-42.08" gradientUnits="userSpaceOnUse"><stop offset="0" stop-color="#fff"/><stop offset="1"/></linearGradient><linearGradient id="linear-gradient-2" x1="30.68" y1="259.3" x2="259.73" y2="-11.4" xlink:href="#linear-gradient"/><linearGradient id="linear-gradient-3" x1="62.26" y1="286.02" x2="291.31" y2="15.33" gradientUnits="userSpaceOnUse"><stop offset="0" stop-color="#fff"/><stop offset="0.35" stop-color="#b1b0b0"/><stop offset="1"/></linearGradient><linearGradient id="linear-gradient-4" x1="98.88" y1="317" x2="327.92" y2="46.31" xlink:href="#linear-gradient"/><linearGradient id="linear-gradient-5" x1="133.17" y1="346.02" x2="362.22" y2="75.33" xlink:href="#linear-gradient"/><linearGradient id="linear-gradient-6" x1="6.64" y1="238.96" x2="235.69" y2="-31.74" xlink:href="#linear-gradient"/><linearGradient id="linear-gradient-7" x1="45.71" y1="272.02" x2="274.76" y2="1.32" gradientUnits="userSpaceOnUse"><stop offset="0" stop-color="#fff"/><stop offset="0.39" stop-color="#aaa8a8"/><stop offset="1"/></linearGradient></defs><rect class="cls-2" x="1" y="1" width="323.41" height="240"/><g class="cls-3"><path class="cls-1" d="M26.28,217.8a4.63,4.63,0,0,1-3.54-1.46,5,5,0,0,1-1-1.67,6.07,6.07,0,0,1-.34-2.11,5.69,5.69,0,0,1,1.48-4.1,5,5,0,0,1,3.76-1.55,4.85,4.85,0,0,1,3.12,1.26l-1,.87a3.75,3.75,0,0,0-1.05-.71,2.87,2.87,0,0,0-1.11-.23,3.57,3.57,0,0,0-.8.09,4.08,4.08,0,0,0-.77.25,4.19,4.19,0,0,0-.69.38,4,4,0,0,0-.6.47,4.32,4.32,0,0,0-.81,1.4,5.4,5.4,0,0,0-.28,1.8,5.12,5.12,0,0,0,.27,1.69,4.21,4.21,0,0,0,.76,1.33,3.89,3.89,0,0,0,1.19.8,3.59,3.59,0,0,0,1.46.29,2.71,2.71,0,0,0,1.12-.23,3.54,3.54,0,0,0,1.05-.71l1,.88A5,5,0,0,1,26.28,217.8Z" transform="translate(1 1)"/><path class="cls-1" d="M37.93,217.8a4.56,4.56,0,0,1-3.58-1.49A5.6,5.6,0,0,1,33,212.46a6.62,6.62,0,0,1,.36-2.24,5.47,5.47,0,0,1,1-1.77A4.84,4.84,0,0,1,36,207.31a5.29,5.29,0,0,1,2.11-.4,5,5,0,0,1,1.94.36,4.15,4.15,0,0,1,1.52,1.12h0a5.39,5.39,0,0,1,1.34,3.81,5.92,5.92,0,0,1-1.36,4.1A4.7,4.7,0,0,1,37.93,217.8Zm.07-9.7a3.69,3.69,0,0,0-1.48.29,3.64,3.64,0,0,0-1.18.88,4.49,4.49,0,0,0-1.05,3.11,4.55,4.55,0,0,0,1,3.09,3.31,3.31,0,0,0,2.62,1.13,3.75,3.75,0,0,0,1.54-.29,3.39,3.39,0,0,0,1.18-.82h0a3.91,3.91,0,0,0,.75-1.38,5.59,5.59,0,0,0,.26-1.8,6,6,0,0,0-.24-1.78,3.4,3.4,0,0,0-.74-1.33,3.12,3.12,0,0,0-1.15-.82A3.77,3.77,0,0,0,38,208.1Z" transform="translate(1 1)"/><path class="cls-1" d="M51.92,215.41h0Zm3.7,2.22v-7.48l-1.72,3.75-1.7,3.73h-.57l-3.42-7.47v7.47H47V207.08h1.08l3.84,8.29s0,0,0,0,0,0,0,0v-.05l0,.05a.14.14,0,0,0,0-.06l0-.07a0,0,0,0,0,0,0,.17.17,0,0,1,0-.05l3.75-8.17h1.08v10.55Z" transform="translate(1 1)"/><path class="cls-1" d="M61,217.63V207.08h5.23v1.2h-4v3.43H66v1.19H62.28v3.54h4.21v1.19Z" transform="translate(1 1)"/><path class="cls-1" d="M80.87,208.28v9.35H79.62v-9.35H76.73v-1.2h7v1.2Z" transform="translate(1 1)"/><path class="cls-1" d="M91.07,217.8a4.56,4.56,0,0,1-3.58-1.49,5.6,5.6,0,0,1-1.33-3.85,6.62,6.62,0,0,1,.36-2.24,5.29,5.29,0,0,1,1-1.77,4.84,4.84,0,0,1,1.64-1.14,5.29,5.29,0,0,1,2.11-.4,5,5,0,0,1,1.94.36,4.15,4.15,0,0,1,1.52,1.12h0a5.39,5.39,0,0,1,1.34,3.81,5.92,5.92,0,0,1-1.36,4.1A4.7,4.7,0,0,1,91.07,217.8Zm.07-9.7a3.69,3.69,0,0,0-1.48.29,3.64,3.64,0,0,0-1.18.88,4.49,4.49,0,0,0-1,3.11,4.55,4.55,0,0,0,1,3.09,3.31,3.31,0,0,0,2.62,1.13,3.75,3.75,0,0,0,1.54-.29,3.39,3.39,0,0,0,1.18-.82h0a3.91,3.91,0,0,0,.75-1.38,5.88,5.88,0,0,0,.26-1.8,6,6,0,0,0-.24-1.78,3.4,3.4,0,0,0-.74-1.33,3.2,3.2,0,0,0-1.15-.82A3.77,3.77,0,0,0,91.14,208.1Z" transform="translate(1 1)"/><path class="cls-1" d="M111,208.28v9.35h-1.26v-9.35h-2.88v-1.2h7v1.2Z" transform="translate(1 1)"/><path class="cls-1" d="M123.86,217.63v-4.79h-5.15v4.79h-1.26V207.08h1.26v4.56h5.15v-4.56h1.25v10.55Z" transform="translate(1 1)"/><path class="cls-1" d="M129.21,217.63V207.08h5.23v1.2h-4v3.43h3.69v1.19h-3.69v3.54h4.2v1.19Z" transform="translate(1 1)"/><path class="cls-1" d="M146.62,213.63v4h-1.25V207.08h2.7a3.76,3.76,0,0,1,2.55.78,2.91,2.91,0,0,1,.89,2.3,3.35,3.35,0,0,1-1,2.49,3.39,3.39,0,0,1-1.19.73,4.36,4.36,0,0,1-1.56.25Zm0-5.35v4.15h1.14a2.63,2.63,0,0,0,1.84-.57,2.07,2.07,0,0,0,.63-1.62c0-1.31-.76-2-2.29-2Z" transform="translate(1 1)"/><path class="cls-1" d="M155,217.63V207.08h1.26v9.36h4v1.19Z" transform="translate(1 1)"/><path class="cls-1" d="M171.51,217.63l-1.14-3.11h-4c-.1.25-.19.5-.29.76l-.3.8c-.1.27-.2.53-.29.79l-.28.76h-1.35l4-10.55h1l3.94,10.55Zm-3.13-8.5v0h0v0l0-.09h.14l0,0a.08.08,0,0,1,0,0h0Zm0,0q-.12.35-.24.66h0c-.1.26-.19.51-.28.76l-.27.74-.26.72-.25.7-.11.3-.11.31h3.06Z" transform="translate(1 1)"/><path class="cls-1" d="M183.73,217.63l-5.95-8.06v8.06h-1.25V207.08h.95l5.91,8v-8h1.25v10.55Z" transform="translate(1 1)"/><path class="cls-1" d="M188.74,217.63V207.08H194v1.2h-4v3.43h3.69v1.19H190v3.54h4.2v1.19Z" transform="translate(1 1)"/><path class="cls-1" d="M201.32,208.28v9.35h-1.25v-9.35h-2.89v-1.2h7v1.2Z" transform="translate(1 1)"/><path class="cls-1" d="M219.81,217.8a4.56,4.56,0,0,1-3.58-1.49,5.6,5.6,0,0,1-1.33-3.85,6.62,6.62,0,0,1,.36-2.24,5.29,5.29,0,0,1,1-1.77,4.84,4.84,0,0,1,1.64-1.14,5.28,5.28,0,0,1,2.1-.4,5.06,5.06,0,0,1,1.95.36,4.15,4.15,0,0,1,1.52,1.12h0a5.43,5.43,0,0,1,1.34,3.81,5.92,5.92,0,0,1-1.36,4.1A4.7,4.7,0,0,1,219.81,217.8Zm.07-9.7a3.69,3.69,0,0,0-1.48.29,3.54,3.54,0,0,0-1.18.88,4.49,4.49,0,0,0-1.05,3.11,4.55,4.55,0,0,0,1,3.09,3.31,3.31,0,0,0,2.62,1.13,3.75,3.75,0,0,0,1.54-.29,3.39,3.39,0,0,0,1.18-.82h0a4.08,4.08,0,0,0,.75-1.38,5.88,5.88,0,0,0,.26-1.8,6,6,0,0,0-.24-1.78,3.4,3.4,0,0,0-.74-1.33,3.2,3.2,0,0,0-1.15-.82A3.77,3.77,0,0,0,219.88,208.1Z" transform="translate(1 1)"/><path class="cls-1" d="M230.05,208.28v3.51h3.69V213h-3.69v4.65h-1.26V207.08H234v1.2Z" transform="translate(1 1)"/><path class="cls-1" d="M244.74,217.63V207.08h2.9a3,3,0,0,1,2.06.71,2.44,2.44,0,0,1,.8,1.88,2.86,2.86,0,0,1-.31,1.35,2.51,2.51,0,0,1-.88,1,2.9,2.9,0,0,1,.53.26,2.74,2.74,0,0,1,.45.39,2.35,2.35,0,0,1,.51.82,2.73,2.73,0,0,1,.18,1,3.06,3.06,0,0,1-.9,2.26,3.25,3.25,0,0,1-2.39.88Zm1.24-9.35v3.29h1.11a3,3,0,0,0,.89-.12,1.63,1.63,0,0,0,.67-.37,1.57,1.57,0,0,0,.56-1.29c0-1-.61-1.51-1.84-1.51Zm0,4.48v3.68h1.58a2.33,2.33,0,0,0,1.59-.49,1.79,1.79,0,0,0,.55-1.4c0-1.19-.85-1.79-2.53-1.79Z" transform="translate(1 1)"/><path class="cls-1" d="M259.6,217.8a4.54,4.54,0,0,1-3.57-1.49,5.6,5.6,0,0,1-1.33-3.85,6.62,6.62,0,0,1,.35-2.24,5.31,5.31,0,0,1,1-1.77,4.8,4.8,0,0,1,1.63-1.14,5.33,5.33,0,0,1,2.11-.4,5.06,5.06,0,0,1,1.95.36,4.23,4.23,0,0,1,1.52,1.12h0a5.43,5.43,0,0,1,1.34,3.81,6,6,0,0,1-1.36,4.1A4.71,4.71,0,0,1,259.6,217.8Zm.08-9.7a3.4,3.4,0,0,0-2.67,1.17,5.22,5.22,0,0,0,0,6.2,3.31,3.31,0,0,0,2.62,1.13,3.78,3.78,0,0,0,1.54-.29,3.48,3.48,0,0,0,1.18-.82h0a4.1,4.1,0,0,0,.76-1.38,5.88,5.88,0,0,0,.26-1.8,6,6,0,0,0-.24-1.78,3.53,3.53,0,0,0-.74-1.33,3.2,3.2,0,0,0-1.15-.82A3.8,3.8,0,0,0,259.68,208.1Z" transform="translate(1 1)"/><path class="cls-1" d="M273.39,217.8a4.56,4.56,0,0,1-3.58-1.49,5.6,5.6,0,0,1-1.33-3.85,6.62,6.62,0,0,1,.36-2.24,5.29,5.29,0,0,1,1-1.77,4.84,4.84,0,0,1,1.64-1.14,5.29,5.29,0,0,1,2.11-.4,5,5,0,0,1,1.94.36,4.15,4.15,0,0,1,1.52,1.12h0a5.39,5.39,0,0,1,1.34,3.81,5.92,5.92,0,0,1-1.36,4.1A4.7,4.7,0,0,1,273.39,217.8Zm.07-9.7a3.69,3.69,0,0,0-1.48.29,3.64,3.64,0,0,0-1.18.88,4.49,4.49,0,0,0-1.05,3.11,4.55,4.55,0,0,0,1,3.09,3.31,3.31,0,0,0,2.62,1.13,3.75,3.75,0,0,0,1.54-.29,3.39,3.39,0,0,0,1.18-.82h0a3.91,3.91,0,0,0,.75-1.38,5.88,5.88,0,0,0,.26-1.8,6,6,0,0,0-.24-1.78,3.4,3.4,0,0,0-.74-1.33,3.12,3.12,0,0,0-1.15-.82A3.77,3.77,0,0,0,273.46,208.1Z" transform="translate(1 1)"/><path class="cls-1" d="M287.69,217.63l-4-4.53v4.53h-1.26V207.08h1.26v4.26l.11-.15.14-.15.36-.42.81-.88.82-.92.82-.9.77-.84h1.65l-4.63,5.12,1.05,1.16,1.08,1.18.78.87.78.86.29.32.33.37.32.36.29.31Z" transform="translate(1 1)"/><path class="cls-1" d="M295,217.79a4.12,4.12,0,0,1-1.33-.29,5.2,5.2,0,0,1-1.25-.74l.79-1a4.11,4.11,0,0,0,1,.61,2.42,2.42,0,0,0,.91.2,2.49,2.49,0,0,0,1.57-.41,1.35,1.35,0,0,0,.54-1.15,1.79,1.79,0,0,0-.09-.57,1.41,1.41,0,0,0-.25-.45h0a5.52,5.52,0,0,0-.64-.52,11.83,11.83,0,0,0-1.06-.67,7.1,7.1,0,0,1-2-1.56,2.64,2.64,0,0,1-.46-1.54,2.52,2.52,0,0,1,.92-2h0a3.42,3.42,0,0,1,2.37-.82,4.13,4.13,0,0,1,1.34.29,5.25,5.25,0,0,1,1.25.75l-.78,1a3.81,3.81,0,0,0-1-.61,2.43,2.43,0,0,0-.92-.2,2.06,2.06,0,0,0-1.41.45,1.39,1.39,0,0,0-.51,1.1,1.79,1.79,0,0,0,.09.57,1.22,1.22,0,0,0,.25.45h0l.27.23.4.29.49.32a4.86,4.86,0,0,0,.54.33,12.08,12.08,0,0,1,1.18.78,4.92,4.92,0,0,1,.76.72,2.42,2.42,0,0,1,.52,1.58,2.66,2.66,0,0,1-.89,2.07,2.72,2.72,0,0,1-1.08.61,5.11,5.11,0,0,1-1.5.19Z" transform="translate(1 1)"/><path class="cls-4" d="M33,187.53a5.19,5.19,0,0,1-4.36-1.93l-4.91-7.73H37a3.69,3.69,0,0,1,3.53,1.85c0-.09,0,0,.2.37,1.91,3.51,3.62,5.73,5.14,6.62a5.25,5.25,0,0,0,2.42.82Zm6.56-23a2.8,2.8,0,0,1-2.05-.86,2.61,2.61,0,0,1-.89-2,2.77,2.77,0,0,1,.77-2,3,3,0,0,1,1.88-.91H50.17a8.57,8.57,0,0,0,8.56-8.56v-1.26H39.59a12.44,12.44,0,0,0-9.1,3.71,12.58,12.58,0,0,0-.11,17.83,12.4,12.4,0,0,0,8.84,3.85H49.43a2.87,2.87,0,0,1,2.08.83,2.8,2.8,0,0,1,.86,2.05,2.75,2.75,0,0,1-.77,1.94,3,3,0,0,1-1.89.94h-6.3l-.88-1.54a5.85,5.85,0,0,0-5.56-3H23.76a2.21,2.21,0,0,0-2.08,1.22,2.28,2.28,0,0,0,.08,2.4q4.92,7.74,5,7.9A7.44,7.44,0,0,0,33,189.9H49.89a12.46,12.46,0,0,0,8.78-3.85,12.71,12.71,0,0,0-8.87-21.53Z" transform="translate(1 1)"/><path class="cls-5" d="M99.26,176.9a10.53,10.53,0,0,1,1-15.83v2.53a7.4,7.4,0,0,0,2.86,6.22s2.62,1.69,7.9,5.05a2.2,2.2,0,0,0,2.39.06,2.17,2.17,0,0,0,1.2-2.06V164a8,8,0,0,0-.23-1.82,10.19,10.19,0,0,1,2.88,7.21,10.54,10.54,0,0,1-18,7.48Zm3.39-24.16a5.54,5.54,0,0,0,.83,2.45,9.07,9.07,0,0,0,3.16,3.08c.89.57,2.17,1.31,3.83,2.25a3.69,3.69,0,0,1,1.82,3.51v8.84l-7.73-4.9a5.2,5.2,0,0,1-1.91-4.37ZM92.24,155a20.47,20.47,0,0,0,14.49,34.94A20.47,20.47,0,1,0,92.24,155Z" transform="translate(1 1)"/><path class="cls-6" d="M164.83,165.74v-.6a5.6,5.6,0,0,0-2.91-5.3c-.89-.49-1.66-.94-2.34-1.34H170a4.58,4.58,0,0,1,3.4,1.14,3.06,3.06,0,0,1,.94,2.28c0,2.54-1.43,3.82-4.28,3.82Zm-2.26,26.73-7.35-4.71a4.9,4.9,0,0,1-1.83-4.13V154.39c.2,2,1.48,3.79,3.82,5.28.86.54,2.06,1.25,3.63,2.14a3.5,3.5,0,0,1,1.73,3.33ZM171.84,149h-14.6a6.41,6.41,0,0,0-4.13,1.28,6,6,0,0,0-2,4.94v28.38a8,8,0,0,0,.88,3.68,5.91,5.91,0,0,0,2,2.36l7.36,4.68a2.06,2.06,0,0,0,2.28.06,2.09,2.09,0,0,0,1.17-1.94v-17.4l6.67-.06a11.32,11.32,0,0,0,8.67-4,13.14,13.14,0,0,0,.12-17.94,11.37,11.37,0,0,0-8.42-4Z" transform="translate(1 1)"/><path class="cls-7" d="M219.56,165.63v26.58L212,187.36a5.13,5.13,0,0,1-1.89-4.27V154.53a5.88,5.88,0,0,0,1.14,2.89A10.16,10.16,0,0,0,214,160c.88.57,2.14,1.32,3.76,2.23A3.61,3.61,0,0,1,219.56,165.63ZM241.24,149H212.4a4.68,4.68,0,0,0-4.68,4.68v29.44a7.34,7.34,0,0,0,2.8,6.1l.2.14,7.61,4.85a2.35,2.35,0,0,0,1.23.34,2.3,2.3,0,0,0,2.31-2.31v-2.34h11.95a7.39,7.39,0,0,0,7.42-7.41v-2.4H221.87V174.3h11.95a7.41,7.41,0,0,0,7.42-7.39v-2.39H221.79a5.72,5.72,0,0,0-2.88-4.37c-.95-.51-1.75-1-2.43-1.39h17.34a7.41,7.41,0,0,0,7.42-7.39Z" transform="translate(1 1)"/><path class="cls-8" d="M279,165.86v-1.2a5.63,5.63,0,0,0-2.94-5.36l-1.34-.77h9.58a4.46,4.46,0,0,1,3.25,1.14,3.16,3.16,0,0,1,1,2.31,3.85,3.85,0,0,1-.85,2.48,3.89,3.89,0,0,1-3.25,1.4Zm-2.28,26.69-7.42-4.73a5,5,0,0,1-1.85-4.19V153.79a6.65,6.65,0,0,0,3,4.74,48.62,48.62,0,0,0,4.51,2.74,3.55,3.55,0,0,1,1.74,3.39ZM288,174.9a12.13,12.13,0,0,0,7-4.71,13.29,13.29,0,0,0,2.82-8.21,12.89,12.89,0,0,0-3.53-9,11.6,11.6,0,0,0-8.5-4.05H272c-4.56,0-6.85,1.74-6.85,5.25v29.41a7.1,7.1,0,0,0,2.74,6q.26.21,7.62,4.88a2.28,2.28,0,0,0,3.48-1.92V179l3.68,4.59a13.68,13.68,0,0,0,4.73,4,11.11,11.11,0,0,0,5.39.77h5.79Z" transform="translate(1 1)"/><path class="cls-9" d="M158.17,24.66a.91.91,0,0,0,.86,0,4.21,4.21,0,0,0-.41-.5c-.73-.72-1.44-1.46-2.22-2.14-1.38-1.21-2.76-2.41-4.2-3.55a30.58,30.58,0,0,0-5.1-3.25,31.76,31.76,0,0,0-3.2-1.46,26.46,26.46,0,0,0-3.57-1,34.5,34.5,0,0,0-3.53-.52,27.36,27.36,0,0,0-3.13-.28c-1.62,0-3.24,0-4.85,0h-.53c-1,0-1.93.1-2.88.15-.32,0-.64,0-1,.07l-2.65.28c-.62.06-1.25.1-1.87.15-1.22.09-2.44.21-3.65.27-.68,0-1.35,0-2,0l-.37,0a11.11,11.11,0,0,1-1.62-.16c-1.23-.23-2.47-.44-3.67-.79-1.76-.5-3.48-1.09-5.22-1.67-.6-.19-1.19-.45-1.78-.68v3.87h9.54c.56,0,1.12.05,1.67.07,1,.05,2.09.09,3.13.15l2.1.14c1.13.09,2.27.18,3.39.29s2.14.22,3.2.36c1.37.18,2.74.33,4.09.59,1.92.36,3.84.74,5.74,1.24,2.72.72,5.43,1.52,8.13,2.34,1.6.48,3.18,1,4.76,1.61,1.93.71,3.86,1.46,5.76,2.24C154.81,23.17,156.49,23.92,158.17,24.66Zm60.24-11.29V9.58c-1,.37-1.93.72-2.9,1.06a41.9,41.9,0,0,1-6.93,1.92,23.26,23.26,0,0,1-3.31.36c-1.08,0-2.16,0-3.25-.09l-.81,0c-.59,0-1.18-.09-1.77-.15-.86-.08-1.72-.19-2.57-.27-.66-.07-1.32-.11-2-.16-1.25-.09-2.5-.24-3.75-.27-1.79,0-3.59,0-5.38.07-.88,0-1.75.11-2.62.21-1.17.15-2.36.28-3.52.51a24.21,24.21,0,0,0-5.42,1.83,32.56,32.56,0,0,0-5.91,3.56c-1.29,1-2.54,2-3.79,3.06-.35.29-.67.61-1,.92l-2.6,2.53.07.13a1.62,1.62,0,0,1,.22,0,1,1,0,0,0,.42-.05c1.81-.76,3.6-1.59,5.43-2.32q3.74-1.49,7.53-2.84c2-.72,4.11-1.36,6.19-2s4.06-1.13,6.11-1.62a65,65,0,0,1,6.95-1.31c1.43-.17,2.84-.39,4.27-.56,1.06-.12,2.12-.21,3.18-.29l3.27-.21q1.53-.11,3.06-.15c1.57,0,3.13-.06,4.7-.07h6.11ZM96.92,14a5.21,5.21,0,0,1,.57-.08l4.27-.07,6.42-.07c1,0,2,0,3,.07s2.31.09,3.46.15,2.33.12,3.48.21,2.19.18,3.29.29,2.11.19,3.16.37c2.18.35,4.35.72,6.51,1.14a77.13,77.13,0,0,1,8.37,2.13c2.12.66,4.24,1.3,6.32,2,2.46.87,4.9,1.81,7.33,2.77,1.56.61,3.09,1.32,4.72,2l-.14,0a.38.38,0,0,1-.17,0L155,24.62l-3.05-.54-3-.53L145.73,23q-1.46-.24-2.91-.51L140.05,22c-1.31-.24-2.61-.49-3.92-.71s-2.9-.48-4.34-.74-2.81-.53-4.23-.78-2.9-.48-4.34-.74-2.81-.52-4.23-.78c-1.71-.3-3.42-.57-5.13-.88s-3.37-.62-5.06-.92c-1.44-.25-2.9-.47-4.34-.73s-2.81-.53-4.23-.78c-1-.19-2.06-.35-3.09-.51C96.92,14.42,96.84,14.3,96.92,14Zm126.16,0c.07.3-.05.38-.28.42l-3.54.62-3.12.53-2.53.44-3.12.56c-1.3.24-2.6.49-3.91.71s-2.9.48-4.34.74-2.81.53-4.23.78l-4.65.8c-1.44.26-2.88.53-4.33.78s-3.12.53-4.68.8l-3.84.71c-1.15.19-2.3.38-3.44.59l-3.91.71-4.35.73-4.18.78-2.19.37a.6.6,0,0,1-.18,0l-.12,0c.75-.34,1.39-.66,2.06-.94,1.44-.61,2.9-1.21,4.36-1.78,1.64-.65,3.3-1.28,5-1.87s3.37-1.21,5.09-1.72c2.59-.77,5.19-1.52,7.81-2.18,1.81-.46,3.65-.77,5.48-1.11,1.29-.23,2.6-.41,3.91-.57,1.06-.15,2.13-.26,3.2-.36s2.38-.2,3.57-.29c.78-.06,1.56-.11,2.35-.15l3.41-.14c1,0,2-.06,2.93-.07,2.13,0,4.26-.07,6.39-.07,1,0,2.07,0,3.11.07.63,0,1.26,0,1.89.07A3.2,3.2,0,0,1,223.08,14ZM156.75,25.45c-.28.25-.53.52-.81.73a.61.61,0,0,1-.47.12c-1.52-.25-3-.53-4.55-.8l-6.76-1.2c-1.54-.27-3.08-.57-4.63-.84s-3.42-.59-5.13-.9c-1.41-.24-2.8-.52-4.2-.76l-3.9-.67-3.85-.7c-1-.18-2.06-.34-3.1-.53l-3-.53-3.13-.54-3-.54-3.12-.54-3-.54L101,16.67l-3-.54-3.12-.54-2.19-.39c-.1,0-.18-.12-.33-.22a2.58,2.58,0,0,0,1.42-.67Q125.25,19.89,156.75,25.45Zm6.46,0,63-11.11a1.25,1.25,0,0,0,1.23.59c.13.22,0,.26-.17.29h-.05c-.44.1-.9.16-1.35.24l-3,.54-3.13.54-3,.54-3.12.54-3,.53c-1.05.18-2.1.35-3.16.55l-2.95.52-3.16.55-3,.53-3,.55c-1.18.21-2.35.43-3.53.63l-3.09.53-3,.54-3.06.53-3.06.54-3.06.54-3.06.54-3.06.54-3,.52-3,.55a.49.49,0,0,1-.29-.08C163.82,26,163.53,25.72,163.21,25.45Zm2,85.81v-.53q0-41.06,0-82.12a9.64,9.64,0,0,0-.11-1.08L231,15.9V99.26c0,.26,0,.41-.36.47-1.35.2-2.69.45-4,.69-1.14.21-2.28.44-3.43.64s-2.59.43-3.88.66l-3.43.62-3.09.52-3,.54c-1,.18-2.08.35-3.12.54l-2.92.51-2.74.49-3.94.72c-1.45.24-2.9.47-4.35.73s-2.81.53-4.22.78c-1.71.31-3.43.58-5.15.88l-5.05.92c-1.56.28-3.12.53-4.69.8-1.14.2-2.28.43-3.43.64l-3.85.65Zm-10.35,0-2.78-.5-2.67-.46-3.12-.54-2.95-.52-3.18-.56-3-.53-3.15-.55-3-.54-3-.54c-1-.17-2-.36-3-.54l-3.06-.53-3-.52-2.7-.49c-1.32-.24-2.63-.49-4-.71l-4.34-.73c-1.41-.25-2.81-.53-4.23-.78l-5.14-.88c-1.69-.29-3.37-.62-5.06-.92q-2.08-.37-4.2-.72c-.21,0-.26-.12-.25-.3V15.9l2.2.39,3.16.55,3,.54,3.06.54,3,.53,3.12.54,3,.54,3.12.54,2.57.44,3.12.57c1.3.24,2.6.49,3.91.71l4.34.73,4.19.77,3.09.52,3,.54,3,.53,3.05.54c1,.18,2.09.35,3.12.54l2.58.44,3.08.56,3,.52a.71.71,0,0,1,.19.08c0,.47-.08.91-.08,1.35q0,27.21,0,54.44v.11q0,13.64,0,27.27A4.61,4.61,0,0,0,154.82,111.27Zm9.06-83.95a7.35,7.35,0,0,1-7.77.08C157.38,25.22,161.86,24.71,163.88,27.32Zm-8.2.88a8.55,8.55,0,0,0,8.57,0,3.24,3.24,0,0,1,.05.46V45.37q0,33.14,0,66.28a2.66,2.66,0,0,1-1.22,2.27,5.31,5.31,0,0,1-5.63.36,3.05,3.05,0,0,1-1.74-2.07,1.93,1.93,0,0,1,0-.42V28.67C155.68,28.51,155.68,28.38,155.68,28.2Z" transform="translate(1 1)"/><g class="cls-10"><path class="cls-11" d="M49,211.42c-.42.07-1,.18-1.58.33s-1.41.37-2.09.59-1.63.52-2.41.83a20.46,20.46,0,0,0-2.35,1.14c-.61.34-1.11.64-1.51.91a11.82,11.82,0,0,0-.95.72,2.31,2.31,0,0,0-.51.53,1.27,1.27,0,0,0-.2.38.62.62,0,0,0,0,.27,1.29,1.29,0,0,0,.16.17,1.13,1.13,0,0,0,.4.18,1.47,1.47,0,0,0,.47,0,7,7,0,0,0,1.31-.22c.5-.14,1.07-.32,1.69-.53l2-.69,2.16-.75c.76-.26,1.5-.49,2.25-.69s1.49-.35,2.25-.47a11.74,11.74,0,0,1,2.14-.17,7.28,7.28,0,0,1,1.94.29,4.57,4.57,0,0,1,1.64.86A3.6,3.6,0,0,1,57,216.66a2.4,2.4,0,0,1,.07,1.52,3.89,3.89,0,0,1-.78,1.47,11.5,11.5,0,0,1-1.4,1.39,17.54,17.54,0,0,1-1.74,1.25c-.62.39-1.22.76-1.81,1.1a33.93,33.93,0,0,1-4.63,2.16,35.25,35.25,0,0,1-4.26,1.33l-3.13-2.51a24.39,24.39,0,0,0,4.68-1.1,25.84,25.84,0,0,0,4.68-2.08,16.59,16.59,0,0,0,2.07-1.32,5.66,5.66,0,0,0,1-1,1.06,1.06,0,0,0,.24-.7.65.65,0,0,0-.25-.43,1,1,0,0,0-.39-.19,1.24,1.24,0,0,0-.47-.06,5.43,5.43,0,0,0-1.35.2c-.59.15-1.17.32-1.73.51s-1.29.45-2,.71l-2.13.76c-.74.26-1.47.5-2.22.71s-1.46.36-2.2.5a13.46,13.46,0,0,1-2.11.19,6.68,6.68,0,0,1-1.91-.27,4.54,4.54,0,0,1-1.64-.84,3.58,3.58,0,0,1-1.14-1.41,2.35,2.35,0,0,1-.08-1.41,3.8,3.8,0,0,1,.7-1.39,9.36,9.36,0,0,1,1.29-1.31,18.2,18.2,0,0,1,1.61-1.2,16.4,16.4,0,0,1,1.73-1c.61-.34,1.25-.67,1.94-1s1.4-.62,2.11-.9,1.42-.53,2.11-.76,1.37-.43,2-.58Z" transform="translate(1 1)"/><path class="cls-1" d="M187.49,88.11a27,27,0,0,1,4.59-3.17,30,30,0,0,1,4.46-2l3.2,3.81a16,16,0,0,0-2.06.53,15.49,15.49,0,0,0-2.26.87A21.27,21.27,0,0,0,193,89.4a21.83,21.83,0,0,0-2.43,1.73,17.85,17.85,0,0,0-2.43,2.41,11.18,11.18,0,0,0-1.42,2.18,6.29,6.29,0,0,0-.59,2,5.15,5.15,0,0,0,.57,3.15,7.07,7.07,0,0,0,.82,1.2,6.88,6.88,0,0,0,.94.93,5.52,5.52,0,0,0,1.27.79,5.54,5.54,0,0,0,3.61.26,10.14,10.14,0,0,0,2.38-.93,17.46,17.46,0,0,0,2.76-1.92c.49-.42.92-.8,1.26-1.14a11.5,11.5,0,0,0,.87-1,10,10,0,0,0,.7-.91l.65-1-1.58-1.88-4.73,4-2.87-3.41,8.94-7.51,6.69,8A23.85,23.85,0,0,1,207,98.41c-.58.73-1.18,1.46-1.82,2.19s-1.3,1.43-2,2.12-1.37,1.3-2,1.85a26.6,26.6,0,0,1-3.11,2.27,19.83,19.83,0,0,1-3.16,1.58,13.21,13.21,0,0,1-3.15.78,9.35,9.35,0,0,1-3-.13,8.82,8.82,0,0,1-2.84-1.16,10.86,10.86,0,0,1-2.61-2.31,10.59,10.59,0,0,1-1.8-3,9,9,0,0,1-.62-3,9.8,9.8,0,0,1,.45-3,13.78,13.78,0,0,1,1.35-3,18.77,18.77,0,0,1,2.1-2.84,26.82,26.82,0,0,1,2.73-2.6" transform="translate(1 1)"/><path class="cls-12" d="M187.49,88.11a27,27,0,0,1,4.59-3.17,30,30,0,0,1,4.46-2l3.2,3.81a16,16,0,0,0-2.06.53,15.49,15.49,0,0,0-2.26.87A21.27,21.27,0,0,0,193,89.4a21.83,21.83,0,0,0-2.43,1.73,17.85,17.85,0,0,0-2.43,2.41,11.18,11.18,0,0,0-1.42,2.18,6.29,6.29,0,0,0-.59,2,5.15,5.15,0,0,0,.57,3.15,7.07,7.07,0,0,0,.82,1.2,6.88,6.88,0,0,0,.94.93,5.52,5.52,0,0,0,1.27.79,5.54,5.54,0,0,0,3.61.26,10.14,10.14,0,0,0,2.38-.93,17.46,17.46,0,0,0,2.76-1.92c.49-.42.92-.8,1.26-1.14a11.5,11.5,0,0,0,.87-1,10,10,0,0,0,.7-.91l.65-1-1.58-1.88-4.73,4-2.87-3.41,8.94-7.51,6.69,8A23.85,23.85,0,0,1,207,98.41c-.58.73-1.18,1.46-1.82,2.19s-1.3,1.43-2,2.12-1.37,1.3-2,1.85a26.6,26.6,0,0,1-3.11,2.27,19.83,19.83,0,0,1-3.16,1.58,13.21,13.21,0,0,1-3.15.78,9.35,9.35,0,0,1-3-.13,8.82,8.82,0,0,1-2.84-1.16,10.86,10.86,0,0,1-2.61-2.31,10.59,10.59,0,0,1-1.8-3,9,9,0,0,1-.62-3,9.8,9.8,0,0,1,.45-3,13.78,13.78,0,0,1,1.35-3,18.77,18.77,0,0,1,2.1-2.84,26.82,26.82,0,0,1,2.73-2.6" transform="translate(1 1)"/><path class="cls-1" d="M213.71,93.38l-13.1-15.62,4.22-3.54,10.23,12.15,11.39-9.54,2.87,3.41L213.7,93.35" transform="translate(1 1)"/><path class="cls-13" d="M213.71,93.38l-13.1-15.62,4.22-3.54,10.23,12.15,11.39-9.54,2.87,3.41L213.7,93.35" transform="translate(1 1)"/></g></g></svg>